<svg width="70" height="70" viewBox="0 0 70 70" fill="none" xmlns="http://www.w3.org/2000/svg">
<g id="Sports cricket">
<g id="Group">
<g id="Group_2">
<g id="Group_3">
<path id="Vector" d="M45.8499 38.9409L19.8134 12.9387C18.6174 11.7443 16.6854 11.7443 15.4894 12.9387L6.81056 21.6061C5.61454 22.8006 5.61454 24.7301 6.81056 25.9245L32.847 51.9267C34.043 53.1211 35.975 53.1211 37.1711 51.9267L45.8499 43.2593C47.0459 42.0649 47.0459 40.1354 45.8499 38.9409Z" fill="#659EC7"/>
<path id="Vector_2" d="M48.0132 49.7584L43.6762 54.0896L56.6871 67.0833L61.024 62.7521L48.0132 49.7584Z" fill="#659EC7"/>
</g>
<path id="Vector_3" d="M56.43 27.2721C62.358 27.2721 67.1635 22.4729 67.1635 16.5527C67.1635 10.6325 62.358 5.83331 56.43 5.83331C50.5021 5.83331 45.6965 10.6325 45.6965 16.5527C45.6965 22.4729 50.5021 27.2721 56.43 27.2721Z" fill="#659EC7"/>
</g>
</g>
</g>
</svg>
