<svg width="70" height="70" viewBox="0 0 70 70" fill="none" xmlns="http://www.w3.org/2000/svg">
<g id="Sports tennis">
<g id="Group">
<path id="Vector" d="M56.9333 7.26252C50.1083 0.437519 37.625 1.80835 29.0792 10.3542C24.4125 15.0209 21.7292 21.6417 21.6708 26.2792C21.6125 30.8875 22.4292 37.625 17.7333 42.3209L5.36667 54.6875L9.50834 58.8292L21.875 46.4625C26.5708 41.7667 33.3083 42.5833 37.9167 42.525C42.525 42.4667 49.175 39.7833 53.8417 35.1167C62.3583 26.5708 63.7583 14.0875 56.9333 7.26252ZM30.1 34.0667C25.6375 29.6042 27.0375 20.6209 33.1917 14.4667C39.3458 8.31252 48.3 6.91252 52.7917 11.375C57.2542 15.8375 55.8542 24.8208 49.7 30.975C43.5458 37.1292 34.5917 38.5292 30.1 34.0667Z" fill="#659EC7"/>
<path id="Vector_2" d="M52.5 49.5833C54.0458 49.5833 55.5333 50.1958 56.6125 51.3042C58.8875 53.5792 58.8875 57.2833 56.6125 59.5583C55.5333 60.6375 54.0458 61.25 52.5 61.25C50.9542 61.25 49.4667 60.6375 48.3875 59.5292C46.1125 57.2542 46.1125 53.55 48.3875 51.275C49.4667 50.1958 50.9542 49.5833 52.5 49.5833ZM52.5 43.75C49.525 43.75 46.5208 44.8875 44.2458 47.1625C39.6958 51.7125 39.6958 59.0917 44.2458 63.6708C46.5208 65.9458 49.525 67.0833 52.5 67.0833C55.475 67.0833 58.4792 65.9458 60.7542 63.6708C65.3042 59.1208 65.3042 51.7417 60.7542 47.1625C58.4792 44.8875 55.475 43.75 52.5 43.75Z" fill="#659EC7"/>
</g>
</g>
</svg>
