<svg width="70" height="70" viewBox="0 0 70 70" fill="none" xmlns="http://www.w3.org/2000/svg">
<g id="Sports soccer">
<g id="Group">
<g id="Group_2">
<path id="Vector" d="M35 5.83331C18.9 5.83331 5.83334 18.9 5.83334 35C5.83334 51.1 18.9 64.1666 35 64.1666C51.1 64.1666 64.1667 51.1 64.1667 35C64.1667 18.9 51.1 5.83331 35 5.83331ZM37.9167 15.4583L41.8542 12.6875C47.1625 14.3208 51.6833 17.8208 54.6292 22.4291L53.4917 26.3375L49.5542 27.6791L37.9167 19.5416V15.4583ZM28.1458 12.6875L32.0833 15.4583V19.5416L20.4458 27.6791L16.5083 26.3375L15.3708 22.4291C18.3167 17.85 22.8375 14.35 28.1458 12.6875ZM20.65 49.9041L17.325 50.1958C13.7958 46.1125 11.6667 40.8041 11.6667 35C11.6667 34.65 11.6958 34.3291 11.725 33.9791L14.6417 31.85L18.6667 33.25L22.925 45.9083L20.65 49.9041ZM42.2917 57.1375C39.9875 57.8958 37.5375 58.3333 35 58.3333C32.4625 58.3333 30.0125 57.8958 27.7083 57.1375L25.6958 52.7916L27.5625 49.5833H42.4667L44.3333 52.8208L42.2917 57.1375ZM41.6208 43.75H28.3792L24.4417 32.025L35 24.6166L45.5875 32.025L41.6208 43.75ZM52.675 50.1958L49.35 49.9041L47.0458 45.9083L51.3042 33.25L55.3583 31.8791L58.275 34.0083C58.3042 34.3291 58.3333 34.65 58.3333 35C58.3333 40.8041 56.2042 46.1125 52.675 50.1958Z" fill="#659EC7"/>
</g>
</g>
</g>
</svg>
