<svg width="70" height="70" viewBox="0 0 70 70" fill="none" xmlns="http://www.w3.org/2000/svg">
<g id="Sports basketball">
<g id="Group">
<g id="Group_2">
<g id="Group_3">
<path id="Vector" d="M49.8458 32.0833H64.0208C63.5542 27.3875 61.95 23.0125 59.5292 19.25C54.4833 21.6708 50.8083 26.3958 49.8458 32.0833Z" fill="#659EC7"/>
</g>
<g id="Group_4">
<path id="Vector_2" d="M20.1542 32.0833C19.1917 26.3958 15.5167 21.6708 10.4708 19.25C8.05 23.0125 6.44583 27.3875 5.97917 32.0833H20.1542Z" fill="#659EC7"/>
</g>
<g id="Group_5">
<path id="Vector_3" d="M43.9542 32.0834C44.8875 24.5292 49.4375 18.1125 55.7958 14.5834C51.1292 9.82919 44.8875 6.67919 37.9167 5.97919V32.0834H43.9542Z" fill="#659EC7"/>
</g>
<g id="Group_6">
<path id="Vector_4" d="M26.0458 32.0834H32.0833V5.97919C25.1125 6.67919 18.8417 9.82919 14.2042 14.5834C20.5625 18.1125 25.1125 24.5292 26.0458 32.0834Z" fill="#659EC7"/>
</g>
<g id="Group_7">
<path id="Vector_5" d="M43.9542 37.9167H37.9167V64.0209C44.8875 63.3209 51.1583 60.1709 55.7958 55.4167C49.4375 51.8875 44.8875 45.4709 43.9542 37.9167Z" fill="#659EC7"/>
</g>
<g id="Group_8">
<path id="Vector_6" d="M10.4708 50.75C15.4875 48.3292 19.1917 43.575 20.1542 37.9167H5.97917C6.44583 42.6125 8.05 46.9875 10.4708 50.75Z" fill="#659EC7"/>
</g>
<g id="Group_9">
<path id="Vector_7" d="M49.8458 37.9167C50.8083 43.6042 54.4833 48.3292 59.5292 50.75C61.95 46.9875 63.5542 42.6125 64.0208 37.9167H49.8458Z" fill="#659EC7"/>
</g>
<g id="Group_10">
<path id="Vector_8" d="M26.0458 37.9167C25.1125 45.4709 20.5625 51.8875 14.2042 55.4167C18.8708 60.1709 25.1125 63.3209 32.0833 64.0209V37.9167H26.0458Z" fill="#659EC7"/>
</g>
</g>
</g>
</g>
</svg>
